# xmcd
#
# Track frame offsets:
#	150
#	13531
#	28124
#	41352
#	55846
#	74054
#	91929
#
# Disc length: 1401 seconds
# Revision: 0
# Processed by: cddbd v1.5.2PL0 Copyright (c) Steve Scherf et al.
# Submitted via: dBpowerAMP V12.0
#
DISCID=55057707
DTITLE=Trixie Mattel - Two Birds
DYEAR=2017
DGENRE=Country
TTITLE0=Mama Don't Make Me Put On The Dress Again
TTITLE1=Make Up Your Mind
TTITLE2=I Know You All Over Again
TTITLE3=Seen My Man
TTITLE4=I'll Wear Your Ring
TTITLE5=Bluegrass
TTITLE6=Seen My Man (Wisconsin Demo)
EXTD=
EXTT0=
EXTT1=
EXTT2=
EXTT3=
EXTT4=
EXTT5=
EXTT6=
PLAYORDER=
